#N canvas 274 272 839 379 10;
#X obj 33 30 netreceive -u -b 18080;
#X obj 33 50 oscparse;
#X obj 32 277 netsend -u -b;
#X obj 67 220 loadbang;
#X msg 67 241 connect localhost 8080;
#X obj 32 305 tgl 15 0 empty empty empty 17 7 0 10 -262144 -1 -1 1
1;
#X obj 32 179 list prepend send;
#X obj 32 200 list trim;
#X obj 32 158 oscformat SET;
#X obj 32 136 list;
#X obj 33 70 list trim;
#X obj 33 91 s fromTeleco;
#X obj 32 114 r toTeleco;
#X obj 293 32 r fromTeleco;
#X obj 122 155 r toTelecoDirect;
#N canvas 350 152 576 433 IP_address 0;
#X obj 90 34 loadbang;
#X obj 90 55 metro 5000;
#X msg 90 76 dir;
#X obj 90 97 pdcontrol;
#X obj 90 251 ggee/shell;
#X msg 90 206 nohup \$1/getip.sh 63333 eth0;
#X obj 235 293 netreceive 63333;
#X msg 271 205 nohup \$1/getip.sh 63333 enp1s6;
#X obj 90 122 list prepend 0;
#X obj 90 151 route 0 1, f 61;
#X obj 174 97 tgl 15 0 empty empty empty 17 7 0 10 -262144 -1 -1 0
1;
#X obj 271 178 symbol;
#X obj 90 178 symbol;
#X obj 71 36 bng 15 250 50 0 empty empty empty 17 7 0 10 -262144 -1
-1;
#X obj 235 314 symbol;
#X msg 235 335 IPeth0 \$1;
#X obj 235 356 s toTeleco;
#X symbolatom 319 343 10 0 0 0 - - -;
#X connect 0 0 1 0;
#X connect 1 0 2 0;
#X connect 2 0 3 0;
#X connect 3 0 8 0;
#X connect 5 0 4 0;
#X connect 6 0 14 0;
#X connect 7 0 4 0;
#X connect 8 0 9 0;
#X connect 9 0 12 0;
#X connect 9 1 11 0;
#X connect 10 0 8 1;
#X connect 11 0 7 0;
#X connect 12 0 5 0;
#X connect 13 0 1 0;
#X connect 14 0 15 0;
#X connect 14 0 17 0;
#X connect 15 0 16 0;
#X restore 34 338 pd IP_address;
#X obj 139 87 print;
#X obj 139 66 spigot;
#X obj 175 45 tgl 15 0 empty empty empty 17 7 0 10 -262144 -1 -1 0
1;
#X obj 452 167 s setSpeed;
#X obj 293 77 s setSteps;
#X obj 376 191 s setStopNextStep;
#X msg 376 163 1;
#X msg 418 164 0;
#X obj 491 110 f;
#X obj 376 77 t b b, f 9;
#X obj 376 132 del 100;
#X msg 392 108 stop;
#X obj 627 148 s setFlashForce;
#X obj 529 86 s setFlashDimm;
#X obj 293 53 route menu_steps button_next fader_speed fader_dimm button_force
shutdown_confirm, f 84;
#X obj 710 76 t b b;
#X msg 651 122 0;
#X msg 710 206 sudo halt;
#X obj 710 228 ggee/shell;
#X floatatom 517 231 5 0 0 0 - - -;
#X msg 452 112 0.25;
#X connect 0 0 1 0;
#X connect 1 0 10 0;
#X connect 2 0 5 0;
#X connect 3 0 4 0;
#X connect 4 0 2 0;
#X connect 6 0 7 0;
#X connect 7 0 2 0;
#X connect 8 0 6 0;
#X connect 9 0 8 0;
#X connect 10 0 11 0;
#X connect 10 0 17 0;
#X connect 12 0 9 0;
#X connect 13 0 30 0;
#X connect 14 0 6 0;
#X connect 17 0 16 0;
#X connect 18 0 17 1;
#X connect 22 0 21 0;
#X connect 23 0 21 0;
#X connect 24 0 19 0;
#X connect 25 0 26 0;
#X connect 25 1 36 0;
#X connect 26 0 22 0;
#X connect 27 0 26 0;
#X connect 30 0 20 0;
#X connect 30 1 25 0;
#X connect 30 2 23 0;
#X connect 30 2 27 0;
#X connect 30 2 24 0;
#X connect 30 3 29 0;
#X connect 30 4 28 0;
#X connect 30 5 31 0;
#X connect 31 0 33 0;
#X connect 31 1 32 0;
#X connect 32 0 28 0;
#X connect 32 0 19 0;
#X connect 33 0 34 0;
#X connect 36 0 19 0;
